<?xml version="1.0" encoding="UTF-8"?>
<svg id="Layer_1" data-name="Layer 1" xmlns="http://www.w3.org/2000/svg" viewBox="0 0 1200 630">
  <defs>
    <style>
      .cls-1 {
        fill: #2568a3;
      }

      .cls-2 {
        fill: none;
        stroke: #2568a3;
        stroke-miterlimit: 15.34;
        stroke-width: 1.72px;
      }
    </style>
  </defs>
  <g>
    <path class="cls-1" d="M291.99,218.75h17.23v185.64h-17.23v-185.64Z"/>
    <path class="cls-1" d="M438.9,359.95l14.53,7.63c-4.76,9.36-10.27,16.91-16.51,22.65-6.24,5.74-13.27,10.11-21.07,13.11-7.81,2.99-16.64,4.49-26.49,4.49-21.85,0-38.94-7.16-51.26-21.48-12.32-14.32-18.48-30.51-18.48-48.56,0-16.99,5.21-32.13,15.65-45.42,13.22-16.91,30.93-25.36,53.1-25.36s41.07,8.66,54.71,25.97c9.69,12.23,14.62,27.49,14.79,45.79h-120.52c.33,15.56,5.3,28.31,14.91,38.26,9.61,9.95,21.49,14.92,35.62,14.92,6.82,0,13.45-1.18,19.9-3.56,6.45-2.37,11.93-5.52,16.45-9.44,4.52-3.92,9.41-10.26,14.67-19.01ZM438.9,323.88c-2.3-9.19-5.65-16.54-10.05-22.04-4.4-5.5-10.21-9.93-17.44-13.3-7.23-3.36-14.83-5.05-22.8-5.05-13.15,0-24.45,4.23-33.89,12.68-6.9,6.16-12.12,15.39-15.65,27.7h99.84Z"/>
    <path class="cls-1" d="M630.47,270.46h17.6v19.57c5.25-7.71,10.79-13.48,16.62-17.3,5.83-3.82,11.9-5.72,18.22-5.72,4.76,0,9.85,1.52,15.26,4.55l-8.99,14.53c-3.61-1.56-6.65-2.34-9.11-2.34-5.74,0-11.29,2.36-16.62,7.08-5.33,4.72-9.4,12.05-12.19,21.97-2.14,7.63-3.2,23.06-3.2,46.29v45.3h-17.6v-133.94Z"/>
    <path class="cls-1" d="M694.43,370.66l15.39-9.23c10.83,19.94,23.35,29.91,37.55,29.91,6.07,0,11.77-1.42,17.11-4.25,5.33-2.83,9.4-6.63,12.19-11.39,2.79-4.76,4.19-9.8,4.19-15.14,0-6.07-2.05-12.02-6.16-17.85-5.66-8.04-16-17.73-31.02-29.05-15.1-11.41-24.5-19.65-28.19-24.74-6.4-8.53-9.6-17.77-9.6-27.7,0-7.88,1.89-15.06,5.66-21.54,3.77-6.48,9.09-11.59,15.94-15.33,6.85-3.73,14.3-5.6,22.34-5.6,8.53,0,16.51,2.11,23.94,6.34,7.43,4.23,15.28,12,23.57,23.33l-14.77,11.2c-6.81-9.03-12.62-14.98-17.42-17.85-4.8-2.87-10.03-4.31-15.7-4.31-7.31,0-13.28,2.22-17.91,6.65-4.64,4.43-6.96,9.89-6.96,16.37,0,3.94.82,7.76,2.46,11.45,1.64,3.69,4.64,7.72,8.99,12.06,2.38,2.3,10.17,8.33,23.39,18.1,15.67,11.57,26.43,21.87,32.25,30.9,5.83,9.03,8.74,18.1,8.74,27.21,0,13.13-4.99,24.54-14.96,34.22-9.97,9.69-22.1,14.53-36.38,14.53-11,0-20.97-2.94-29.91-8.8-8.95-5.87-17.19-15.7-24.74-29.48Z"/>
    <path class="cls-1" d="M810.54,218.75h17.23v105.76l62.1-54.05h25.31l-73.62,63.89,77.92,70.05h-24.26l-67.45-60.3v60.3h-17.23v-185.64Z"/>
    <path class="cls-1" d="M936.88,215.31c3.92,0,7.27,1.4,10.05,4.19,2.78,2.79,4.17,6.16,4.17,10.09s-1.39,7.18-4.17,9.97c-2.78,2.79-6.13,4.19-10.05,4.19s-7.15-1.39-9.93-4.19c-2.78-2.79-4.17-6.11-4.17-9.97s1.39-7.3,4.17-10.09c2.78-2.79,6.09-4.19,9.93-4.19ZM928.32,270.46h17.23v133.94h-17.23v-133.94Z"/>
    <path class="cls-1" d="M1075.23,359.95l14.53,7.63c-4.76,9.36-10.27,16.91-16.51,22.65-6.24,5.74-13.27,10.11-21.07,13.11-7.81,2.99-16.64,4.49-26.49,4.49-21.85,0-38.93-7.16-51.26-21.48-12.32-14.32-18.48-30.51-18.48-48.56,0-16.99,5.22-32.13,15.65-45.42,13.22-16.91,30.93-25.36,53.1-25.36s41.07,8.66,54.71,25.97c9.69,12.23,14.62,27.49,14.79,45.79h-120.52c.33,15.56,5.3,28.31,14.91,38.26s21.49,14.92,35.62,14.92c6.82,0,13.45-1.18,19.9-3.56,6.45-2.37,11.93-5.52,16.45-9.44,4.52-3.92,9.41-10.26,14.67-19.01ZM1075.23,323.88c-2.3-9.19-5.65-16.54-10.05-22.04-4.4-5.5-10.21-9.93-17.44-13.3-7.23-3.36-14.83-5.05-22.8-5.05-13.15,0-24.45,4.23-33.9,12.68-6.9,6.16-12.12,15.39-15.65,27.7h99.83Z"/>
    <path class="cls-1" d="M1174.75,285.11l-11.08,11.45c-9.22-8.94-18.23-13.42-27.03-13.42-5.6,0-10.39,1.85-14.38,5.54-3.99,3.69-5.99,8-5.99,12.93,0,4.35,1.64,8.49,4.93,12.43,3.29,4.02,10.2,8.74,20.72,14.16,12.83,6.65,21.55,13.05,26.15,19.2,4.52,6.24,6.78,13.25,6.78,21.05,0,11-3.86,20.31-11.59,27.94-7.73,7.63-17.39,11.45-28.97,11.45-7.73,0-15.11-1.68-22.13-5.05-7.03-3.36-12.84-8-17.45-13.91l10.83-12.31c8.8,9.93,18.14,14.89,28.01,14.89,6.91,0,12.79-2.21,17.64-6.65,4.85-4.43,7.28-9.64,7.28-15.63,0-4.92-1.6-9.31-4.81-13.17-3.21-3.77-10.45-8.53-21.71-14.28-12.09-6.24-20.32-12.39-24.67-18.47-4.36-6.07-6.54-13.01-6.54-20.8,0-10.18,3.47-18.63,10.42-25.36,6.95-6.73,15.72-10.09,26.33-10.09,12.33,0,24.74,6.03,37.24,18.1Z"/>
    <path class="cls-1" d="M610.83,270.46v133.94h-16.99v-23.02c-7.22,8.78-15.32,15.39-24.31,19.82-8.99,4.43-18.82,6.65-29.48,6.65-18.96,0-35.15-6.87-48.56-20.62-13.42-13.75-20.13-30.47-20.13-50.17s6.77-35.78,20.31-49.49c13.54-13.7,29.83-20.56,48.87-20.56,11,0,20.95,2.34,29.85,7.02,8.9,4.68,16.72,11.69,23.45,21.05v-24.62h16.99ZM541.95,283.63c-9.59,0-18.44,2.36-26.56,7.07-8.12,4.72-14.57,11.34-19.37,19.86-4.8,8.52-7.19,17.54-7.19,27.05s2.42,18.45,7.25,27.05c4.84,8.61,11.33,15.31,19.49,20.1,8.16,4.8,16.91,7.19,26.25,7.19s18.36-2.38,26.81-7.13c8.44-4.75,14.94-11.19,19.49-19.3,4.55-8.11,6.82-17.26,6.82-27.42,0-15.49-5.1-28.44-15.31-38.86-10.21-10.41-22.77-15.62-37.69-15.62Z"/>
  </g>
  <g>
    <g>
      <path class="cls-1" d="M241.26,242.45c-11.04-5.29-23.16-7.94-36.38-7.94-14.45,0-27.82,3.47-40.13,10.4-12.31,6.94-21.85,16.25-28.62,27.94-6.77,11.69-10.16,24.85-10.16,39.45,0,22.08,7.57,40.5,22.71,55.27,15.14,14.77,34.24,22.16,57.3,22.16,25.36,0,46.57-9.93,63.64-29.79l.55.42v-95.01l-.55.42c-7.88-10.26-17.34-18.03-28.37-23.33Z"/>
      <path class="cls-1" d="M263.87,390.57l.45-1.26c-4.42,3.07-9.15,5.79-14.2,8.13-13.5,6.28-28.58,9.42-45.24,9.42-31.68,0-56.67-10.54-74.97-31.64-15.35-17.81-23.02-39.31-23.02-64.51,0-26.51,9.29-48.81,27.88-66.91,18.59-18.1,41.87-27.14,69.86-27.14,16.91,0,32.17,3.34,45.79,10.03,5.93,2.91,11.37,6.37,16.37,10.3l-.24-1.36,31.69-85.17-53.98,65.32.79-47.45-26.46,47.6-15.33-90.92-14.2,84.17-22.69-40.84.88,53.5-58.99-71.37,30.31,81.4-40.34-24.19,26.63,44.41-86.14-32.07,68.47,56.6-48.3-.8,43.49,24.16-89.11,15.03,89.51,15.1-43.89,24.38,47.95-.79-68.12,56.3,86.35-32.16-26.85,44.78,40.2-24.11-30.17,81.01,58.99-71.36-.89,53.81,22.72-40.93,14.17,83.95,15.3-90.71,26.49,47.69-.79-47.77,51.16,61.15-31.56-84.79Z"/>
    </g>
    <path class="cls-2" d="M284.63,255.19l-14.28,10.96c-7.88-10.26-17.34-18.03-28.37-23.33-11.04-5.29-23.16-7.94-36.38-7.94-14.45,0-27.82,3.47-40.13,10.4-12.31,6.94-21.85,16.25-28.62,27.94-6.77,11.69-10.16,24.85-10.16,39.45,0,22.08,7.57,40.5,22.71,55.27,15.14,14.77,34.24,22.16,57.3,22.16,25.36,0,46.57-9.93,63.64-29.79l14.28,10.83c-9.03,11.49-20.29,20.37-33.79,26.65-13.5,6.28-28.58,9.42-45.24,9.42-31.68,0-56.67-10.54-74.97-31.64-15.35-17.81-23.02-39.31-23.02-64.51,0-26.51,9.29-48.81,27.88-66.91,18.59-18.1,41.87-27.14,69.86-27.14,16.91,0,32.17,3.34,45.79,10.03,13.62,6.69,24.78,16.07,33.48,28.13Z"/>
  </g>
</svg>