<?xml version="1.0" encoding="UTF-8"?>
<svg id="Layer_1" xmlns="http://www.w3.org/2000/svg" version="1.1" viewBox="0 0 1168.58 384.99">
  <!-- Generator: Adobe Illustrator 30.4.0, SVG Export Plug-In . SVG Version: 2.1.4 Build 226)  -->
  <g>
    <path d="M282.59,93.74h17.23v185.64h-17.23V93.74Z" style="fill: #2568a3;"/>
    <path d="M429.5,234.94l14.53,7.63c-4.76,9.36-10.27,16.91-16.51,22.65-6.24,5.74-13.27,10.11-21.07,13.11-7.81,2.99-16.64,4.49-26.49,4.49-21.85,0-38.94-7.16-51.26-21.48-12.32-14.32-18.48-30.51-18.48-48.56,0-16.99,5.21-32.13,15.65-45.42,13.22-16.91,30.93-25.36,53.1-25.36s41.07,8.66,54.71,25.97c9.69,12.23,14.62,27.49,14.79,45.79h-120.52c.33,15.56,5.3,28.31,14.91,38.26,9.61,9.95,21.49,14.92,35.62,14.92,6.82,0,13.45-1.18,19.9-3.56,6.45-2.37,11.93-5.52,16.45-9.44,4.52-3.92,9.41-10.26,14.67-19.01ZM429.5,198.87c-2.3-9.19-5.65-16.54-10.05-22.04-4.4-5.5-10.21-9.93-17.44-13.3-7.23-3.36-14.83-5.05-22.8-5.05-13.15,0-24.45,4.23-33.89,12.68-6.9,6.16-12.12,15.39-15.65,27.7h99.84Z" style="fill: #2568a3;"/>
    <path d="M621.07,145.44h17.6v19.57c5.25-7.71,10.79-13.48,16.62-17.3,5.83-3.82,11.9-5.72,18.22-5.72,4.76,0,9.85,1.52,15.26,4.55l-8.99,14.53c-3.61-1.56-6.65-2.34-9.11-2.34-5.74,0-11.29,2.36-16.62,7.08-5.33,4.72-9.4,12.05-12.19,21.97-2.14,7.63-3.2,23.06-3.2,46.29v45.3h-17.6v-133.94Z" style="fill: #2568a3;"/>
    <path d="M685.02,245.65l15.39-9.23c10.83,19.94,23.35,29.91,37.55,29.91,6.07,0,11.77-1.42,17.11-4.25,5.33-2.83,9.4-6.63,12.19-11.39,2.79-4.76,4.19-9.8,4.19-15.14,0-6.07-2.05-12.02-6.16-17.85-5.66-8.04-16-17.73-31.02-29.05-15.1-11.41-24.5-19.65-28.19-24.74-6.4-8.53-9.6-17.77-9.6-27.7,0-7.88,1.89-15.06,5.66-21.54,3.77-6.48,9.09-11.59,15.94-15.33,6.85-3.73,14.3-5.6,22.34-5.6,8.53,0,16.51,2.11,23.94,6.34,7.43,4.23,15.28,12,23.57,23.33l-14.77,11.2c-6.81-9.03-12.62-14.98-17.42-17.85-4.8-2.87-10.03-4.31-15.7-4.31-7.31,0-13.28,2.22-17.91,6.65-4.64,4.43-6.96,9.89-6.96,16.37,0,3.94.82,7.76,2.46,11.45,1.64,3.69,4.64,7.72,8.99,12.06,2.38,2.3,10.17,8.33,23.39,18.1,15.67,11.57,26.43,21.87,32.25,30.9,5.83,9.03,8.74,18.1,8.74,27.21,0,13.13-4.99,24.54-14.96,34.22-9.97,9.69-22.1,14.53-36.38,14.53-11,0-20.97-2.94-29.91-8.8-8.95-5.87-17.19-15.7-24.74-29.48Z" style="fill: #2568a3;"/>
    <path d="M801.13,93.74h17.23v105.76l62.1-54.05h25.31l-73.62,63.89,77.92,70.05h-24.26l-67.45-60.3v60.3h-17.23V93.74Z" style="fill: #2568a3;"/>
    <path d="M927.47,90.29c3.92,0,7.27,1.4,10.05,4.19,2.78,2.79,4.17,6.16,4.17,10.09s-1.39,7.18-4.17,9.97c-2.78,2.79-6.13,4.19-10.05,4.19s-7.15-1.39-9.93-4.19c-2.78-2.79-4.17-6.11-4.17-9.97s1.39-7.3,4.17-10.09c2.78-2.79,6.09-4.19,9.93-4.19ZM918.92,145.44h17.23v133.94h-17.23v-133.94Z" style="fill: #2568a3;"/>
    <path d="M1065.83,234.94l14.53,7.63c-4.76,9.36-10.27,16.91-16.51,22.65-6.24,5.74-13.27,10.11-21.07,13.11-7.81,2.99-16.64,4.49-26.49,4.49-21.85,0-38.93-7.16-51.26-21.48-12.32-14.32-18.48-30.51-18.48-48.56,0-16.99,5.22-32.13,15.65-45.42,13.22-16.91,30.93-25.36,53.1-25.36s41.07,8.66,54.71,25.97c9.69,12.23,14.62,27.49,14.79,45.79h-120.52c.33,15.56,5.3,28.31,14.91,38.26s21.49,14.92,35.62,14.92c6.82,0,13.45-1.18,19.9-3.56,6.45-2.37,11.93-5.52,16.45-9.44,4.52-3.92,9.41-10.26,14.67-19.01ZM1065.83,198.87c-2.3-9.19-5.65-16.54-10.05-22.04-4.4-5.5-10.21-9.93-17.44-13.3-7.23-3.36-14.83-5.05-22.8-5.05-13.15,0-24.45,4.23-33.9,12.68-6.9,6.16-12.12,15.39-15.65,27.7h99.83Z" style="fill: #2568a3;"/>
    <path d="M1165.34,160.09l-11.08,11.45c-9.22-8.94-18.23-13.42-27.03-13.42-5.6,0-10.39,1.85-14.38,5.54-3.99,3.69-5.99,8-5.99,12.93,0,4.35,1.64,8.49,4.93,12.43,3.29,4.02,10.2,8.74,20.72,14.16,12.83,6.65,21.55,13.05,26.15,19.2,4.52,6.24,6.78,13.25,6.78,21.05,0,11-3.86,20.31-11.59,27.94-7.73,7.63-17.39,11.45-28.97,11.45-7.73,0-15.11-1.68-22.13-5.05-7.03-3.36-12.84-8-17.45-13.91l10.83-12.31c8.8,9.93,18.14,14.89,28.01,14.89,6.91,0,12.79-2.21,17.64-6.65,4.85-4.43,7.28-9.64,7.28-15.63,0-4.92-1.6-9.31-4.81-13.17-3.21-3.77-10.45-8.53-21.71-14.28-12.09-6.24-20.32-12.39-24.67-18.47-4.36-6.07-6.54-13.01-6.54-20.8,0-10.18,3.47-18.63,10.42-25.36,6.95-6.73,15.72-10.09,26.33-10.09,12.33,0,24.74,6.03,37.24,18.1Z" style="fill: #2568a3;"/>
    <path d="M601.42,145.44v133.94h-16.99v-23.02c-7.22,8.78-15.32,15.39-24.31,19.82-8.99,4.43-18.82,6.65-29.48,6.65-18.96,0-35.15-6.87-48.56-20.62-13.42-13.75-20.13-30.47-20.13-50.17s6.77-35.78,20.31-49.49c13.54-13.7,29.83-20.56,48.87-20.56,11,0,20.95,2.34,29.85,7.02,8.9,4.68,16.72,11.69,23.45,21.05v-24.62h16.99ZM532.55,158.62c-9.59,0-18.44,2.36-26.56,7.07-8.12,4.72-14.57,11.34-19.37,19.86-4.8,8.52-7.19,17.54-7.19,27.05s2.42,18.45,7.25,27.05c4.84,8.61,11.33,15.31,19.49,20.1,8.16,4.8,16.91,7.19,26.25,7.19s18.36-2.38,26.81-7.13c8.44-4.75,14.94-11.19,19.49-19.3,4.55-8.11,6.82-17.26,6.82-27.42,0-15.49-5.1-28.44-15.31-38.86-10.21-10.41-22.77-15.62-37.69-15.62Z" style="fill: #2568a3;"/>
  </g>
  <path d="M274.51,142.26" style="fill: #2568a3;"/>
  <g>
    <g>
      <path d="M231.86,117.44c-11.04-5.29-23.16-7.94-36.38-7.94-14.45,0-27.82,3.47-40.13,10.4-12.31,6.94-21.85,16.25-28.62,27.94-6.77,11.69-10.16,24.85-10.16,39.45,0,22.08,7.57,40.5,22.71,55.27,15.14,14.77,34.24,22.16,57.3,22.16,25.36,0,46.57-9.93,63.64-29.79l.55.42v-95.01l-.55.42c-7.88-10.26-17.34-18.03-28.37-23.33Z" style="fill: #2568a3;"/>
      <path d="M254.47,265.56l.45-1.26c-4.42,3.07-9.15,5.79-14.2,8.13-13.5,6.28-28.58,9.42-45.24,9.42-31.68,0-56.67-10.54-74.97-31.64-15.35-17.81-23.02-39.31-23.02-64.51,0-26.51,9.29-48.81,27.88-66.91,18.59-18.1,41.87-27.14,69.86-27.14,16.91,0,32.17,3.34,45.79,10.03,5.93,2.91,11.37,6.37,16.37,10.3l-.24-1.36,31.69-85.17-53.98,65.32.79-47.45-26.46,47.6L193.87,0l-14.2,84.17-22.69-40.84.88,53.5L98.88,25.45l30.31,81.4-40.34-24.19,26.63,44.41L29.34,94.99l68.47,56.6-48.3-.8,43.49,24.16L3.88,189.99l89.51,15.1-43.89,24.38,47.95-.79-68.12,56.3,86.35-32.16-26.85,44.78,40.2-24.11-30.17,81.01,58.99-71.36-.89,53.81,22.72-40.93,14.17,83.95,15.3-90.71,26.49,47.69-.79-47.77,51.16,61.15-31.56-84.79Z" style="fill: #2568a3;"/>
    </g>
    <path d="M275.23,130.18l-14.28,10.96c-7.88-10.26-17.34-18.03-28.37-23.33-11.04-5.29-23.16-7.94-36.38-7.94-14.45,0-27.82,3.47-40.13,10.4-12.31,6.94-21.85,16.25-28.62,27.94-6.77,11.69-10.16,24.85-10.16,39.45,0,22.08,7.57,40.5,22.71,55.27,15.14,14.77,34.24,22.16,57.3,22.16,25.36,0,46.57-9.93,63.64-29.79l14.28,10.83c-9.03,11.49-20.29,20.37-33.79,26.65-13.5,6.28-28.58,9.42-45.24,9.42-31.68,0-56.67-10.54-74.97-31.64-15.35-17.81-23.02-39.31-23.02-64.51,0-26.51,9.29-48.81,27.88-66.91,18.59-18.1,41.87-27.14,69.86-27.14,16.91,0,32.17,3.34,45.79,10.03,13.62,6.69,24.78,16.07,33.48,28.13Z" style="fill: none; stroke: #2568a3; stroke-miterlimit: 15.34; stroke-width: 1.72px;"/>
  </g>
  <g>
    <path d="M300.15,310.83c2.58-.71,5.88-1.32,9.6-1.32,5.4,0,9.3,2.24,11.7,6.11,2.04,3.26,3.24,7.74,3.24,13.34,0,6.01-1.08,10.69-3.12,14.16-2.76,4.89-7.38,7.43-12.72,7.43-2.1,0-4.08-.1-5.76-1.02v29.23h-2.94v-67.92ZM303.09,345.15c1.68.92,3.84,1.22,6.12,1.22,8.04,0,12.54-6.21,12.54-16.8,0-11.81-5.52-15.89-12.06-15.89-3.06,0-5.4.51-6.6.92v30.55Z" style="fill: #2568a3; stroke: #2568a3; stroke-miterlimit: 10; stroke-width: 4px;"/>
    <path d="M470.01,343.52c0,23.73-9.96,36.46-20.52,36.46-11.52,0-20.1-14.56-20.1-34.62,0-21.59,9-36.46,20.52-36.46s20.1,14.87,20.1,34.62ZM432.45,345.15c0,16.19,6.54,30.75,17.16,30.75s17.34-13.75,17.34-31.98c0-14.87-5.7-30.96-17.16-30.96s-17.34,15.27-17.34,32.18Z" style="fill: #2568a3; stroke: #2568a3; stroke-miterlimit: 10; stroke-width: 4px;"/>
    <path d="M584.67,378.75l-11.46-68.64h3l6.42,39.41c1.44,8.76,2.82,17.21,3.66,23.01h.12c.72-5.6,2.34-14.05,4.08-23.01l7.44-39.41h2.88l6.54,39.31c1.38,8.35,2.82,17.11,3.48,23.12h.12c.96-6.42,2.4-13.85,4.08-22.91l7.44-39.51h3.06l-13.38,68.64h-2.88l-6.54-39.31c-1.8-10.79-2.82-17.31-3.42-23.52h-.12c-.72,6.01-1.98,12.63-4.08,23.32l-7.56,39.51h-2.88Z" style="fill: #2568a3; stroke: #2568a3; stroke-miterlimit: 10; stroke-width: 4px;"/>
    <path d="M750.99,344.64h-18v29.94h20.04v4.18h-22.98v-68.64h21.96v4.18h-19.02v26.17h18v4.18Z" style="fill: #2568a3; stroke: #2568a3; stroke-miterlimit: 10; stroke-width: 4px;"/>
    <path d="M860.06,311.03c2.76-.92,6.72-1.53,9.84-1.53,5.76,0,9.36,2.04,11.82,6.11,1.74,2.75,2.88,7.33,2.88,12.02,0,9.06-3.42,15.27-8.34,17.82v.2c3.3,1.93,5.46,7.13,6.42,13.95,1.5,10.79,2.34,16.19,3.3,19.14h-3.12c-.66-1.93-1.56-7.94-2.7-16.5-1.32-9.88-3.96-14.46-9.48-14.97h-7.68v31.47h-2.94v-67.72ZM863.01,343.21h7.8c6.66,0,10.86-5.91,10.86-14.77,0-11-5.34-14.87-11.82-14.87-3.3,0-5.7.61-6.84,1.12v28.51Z" style="fill: #2568a3; stroke: #2568a3; stroke-miterlimit: 10; stroke-width: 4px;"/>
    <path d="M1013.3,344.64h-18v29.94h20.04v4.18h-22.98v-68.64h21.96v4.18h-19.02v26.17h18v4.18Z" style="fill: #2568a3; stroke: #2568a3; stroke-miterlimit: 10; stroke-width: 4px;"/>
    <path d="M1122.39,311.03c3.6-.81,7.62-1.53,12.12-1.53,8.58,0,15.12,3.97,18.9,11,3.36,6.21,4.86,13.54,4.86,22.4,0,7.84-1.38,17.41-5.58,25.05-3.9,7.03-10.74,11.41-19.8,11.41-3.66,0-7.02-.1-10.5-.61v-67.72ZM1125.32,374.57c1.92.51,4.8.61,8.04.61,15.36,0,21.9-14.36,21.9-32.18.12-16.8-6.24-29.33-21-29.33-3.9,0-6.84.61-8.94,1.32v59.57Z" style="fill: #2568a3; stroke: #2568a3; stroke-miterlimit: 10; stroke-width: 4px;"/>
  </g>
</svg>