<?xml version="1.0" encoding="UTF-8"?>
<svg id="Layer_1" xmlns="http://www.w3.org/2000/svg" version="1.1" viewBox="0 0 261.34 48.11">
  <!-- Generator: Adobe Illustrator 30.4.0, SVG Export Plug-In . SVG Version: 2.1.4 Build 226)  -->
  <path d="M9.81,0c-3.16,6.64-4.79,14.1-4.65,21.48l22.89.13c.07,0,.15.02.18-.07.02-.05.05-.87.05-1.01.04-2.21-.24-4.67-.52-6.87-.6-4.67-1.53-9.43-3.64-13.66h33.94c.12,0,1.13,1.7,1.26,1.92,2.78,4.82,4.3,11.41,1.4,16.53-1.31,2.32-3.53,3.63-5.91,4.68,3.88,1.05,6.62,3.98,7.37,7.94.87,4.61-.65,9.61-2.86,13.61-.13.23-1.14,2.05-1.26,2.05H24.16c2.78-6.92,4.36-14.36,4.29-21.86l-23.35-.21c.11,5.82.65,11.85,2.58,17.35.56,1.6,1.28,3.14,1.88,4.72H-.55c.1-7.66-.13-15.33-.04-22.99S-.09,7.92,0,0h9.81ZM44.4,1.88c-6.28.21-9.97,5.08-10.52,11.01l.04,8.71c1.01.06,2.03.09,3.04.11,4.69.08,9.4-.02,14.09-.06,7.58-1.91,5.44-13.21.86-17.05-2.08-1.75-4.75-2.8-7.5-2.71ZM33.89,24.97v8.97c.59,9.11,10.22,14.03,17.63,8.3,4.94-3.82,7.25-15.62-.76-17.36-5.16.04-10.34-.15-15.5,0-.18,0-1.34.03-1.37.09Z" style="fill: #2568a3;"/>
  <g>
    <path d="M71.74,19.5l5.12,16.28c1.05,3.37,1.86,6.05,2.56,8.6h.12c.76-2.44,1.8-5.23,3.08-8.6l6.22-16.28h2.85l5.93,16.22c1.28,3.49,2.21,6.28,2.97,8.66h.12c.64-2.44,1.57-5.23,2.73-8.6l5.58-16.28h2.91l-10.12,27.91h-2.56l-5.7-15.41c-1.34-3.55-2.5-6.8-3.31-9.94h-.12c-.93,3.26-2.15,6.57-3.49,10l-6.1,15.35h-2.56l-9.19-27.91h2.96Z" style="fill: #2568a3;"/>
    <path d="M115.06,33.46c0,8.14,5.17,12.21,11.8,12.21,4.83,0,7.15-.93,8.95-1.74l.76,2.27c-.99.46-4.13,1.92-10,1.92-8.66,0-14.3-5.87-14.3-13.95,0-9.48,6.05-15.35,13.95-15.35,10.35,0,12.15,9.19,12.15,12.91,0,.87,0,1.28-.12,1.74h-23.2ZM135.4,31.19c.06-2.91-1.16-10.06-9.53-10.06-7.09,0-10.06,5.81-10.64,10.06h20.17Z" style="fill: #2568a3;"/>
    <path d="M160.11,47.41l-.47-4.3h-.12c-1.45,2.15-5,5-10.12,5-6.34,0-8.89-4.3-8.89-7.67,0-6.34,5.87-10.46,18.89-10.29v-.64c0-2.09-.47-8.37-7.91-8.31-2.79,0-5.7.7-8.02,2.33l-.93-2.03c3.08-2.03,6.51-2.67,9.19-2.67,9.48,0,10.52,7.33,10.52,11.74v10.12c0,2.27.12,4.48.47,6.74h-2.62ZM159.42,32.52c-7.38-.23-15.87.93-15.87,7.38,0,3.95,2.85,5.87,6.1,5.87,5.41,0,8.31-3.2,9.42-5.7.23-.58.35-1.16.35-1.63v-5.93Z" style="fill: #2568a3;"/>
    <path d="M173.14,11.19v8.31h8.84v2.27h-8.84v17.85c0,3.43,1.05,6.05,4.48,6.05,1.69,0,2.85-.23,3.66-.52l.35,2.21c-.99.41-2.44.76-4.3.76-2.21,0-4.01-.7-5.17-2.09-1.4-1.57-1.86-4.13-1.86-6.74v-17.5h-5.12v-2.27h5.12v-7.44l2.85-.87Z" style="fill: #2568a3;"/>
    <path d="M185.93,5.78h2.85v19.36h.12c.87-1.74,2.38-3.43,4.3-4.53,1.8-1.1,4.01-1.8,6.28-1.8,2.67,0,10.87,1.16,10.87,12.67v15.93h-2.85v-15.81c0-5.41-2.33-10.29-8.78-10.29-4.42,0-8.14,3.14-9.48,6.57-.35.87-.46,1.69-.46,2.96v16.57h-2.85V5.78Z" style="fill: #2568a3;"/>
    <path d="M217.56,33.46c0,8.14,5.17,12.21,11.8,12.21,4.83,0,7.15-.93,8.95-1.74l.76,2.27c-.99.46-4.13,1.92-10,1.92-8.66,0-14.3-5.87-14.3-13.95,0-9.48,6.05-15.35,13.95-15.35,10.35,0,12.15,9.19,12.15,12.91,0,.87,0,1.28-.12,1.74h-23.2ZM237.91,31.19c.06-2.91-1.16-10.06-9.53-10.06-7.09,0-10.06,5.81-10.64,10.06h20.17Z" style="fill: #2568a3;"/>
    <path d="M245.7,28.51c0-3.02-.06-5.99-.23-9.01h2.62l.12,6.05h.17c1.4-3.9,4.42-6.74,8.55-6.74.46,0,.93.06,1.34.17v2.62c-.52-.12-.99-.12-1.63-.12-3.9,0-6.86,3.26-7.79,8.08-.17.81-.29,1.8-.29,2.73v15.12h-2.85v-18.89Z" style="fill: #2568a3;"/>
  </g>
</svg>